<?xml version="1.0" encoding="utf-8"?>
<!-- Generator: Adobe Illustrator 17.1.0, SVG Export Plug-In . SVG Version: 6.00 Build 0)  -->
<!DOCTYPE svg PUBLIC "-//W3C//DTD SVG 1.1//EN" "http://www.w3.org/Graphics/SVG/1.1/DTD/svg11.dtd">
<svg version="1.1" id="Capa_1" xmlns="http://www.w3.org/2000/svg" xmlns:xlink="http://www.w3.org/1999/xlink" x="0px" y="0px"
	 viewBox="0 0 841.89 255.118" enable-background="new 0 0 841.89 255.118" xml:space="preserve">
<g>
	<g>
		<g>
			<polygon points="334.327,100.37 267.752,100.37 265.042,113.691 294.012,113.691 278.478,188.394 293.892,188.394 
				309.426,113.691 331.491,113.691 			"/>
			<path d="M547.554,100.37l-38.22,67.064h-0.246l-9.616-67.064h-21.205l-14.063,67.853l-11.785-67.853h-16.272l-43.877,73.197
				c0.395-3.571,0.902-7.151,0.902-10.689c0-7.278-1.972-13.19-9.371-15.91v-0.241c12.452-2.218,19.971-9.988,19.971-23.921
				c0-21.451-20.217-22.435-27.735-22.435h-38.095l-18.244,88.024h15.654l7.519-36.248h18.37c8.261,0,16.518,0,16.518,10.239
				c0,6.404-1.476,12.698-1.476,19.233c0,2.459,0.246,4.557,0.984,6.776h6.115h10.036h6.486l13.556-23.298h35.013l3.578,23.298h7.97
				h7.684h7.112l13.436-70.518h0.246l11.097,70.518h12.081l39.821-70.518h0.246l-15.288,70.518h14.796l18.119-88.024H547.554z
				 M367.901,140.442H345.34l5.667-27.494h21.577c8.136,0,15.78,1.847,15.78,11.463C388.364,134.64,380.965,140.442,367.901,140.442
				z M419.995,153.381l21.205-37.472h0.246l5.425,37.472H419.995z"/>
			<polygon points="554.902,188.394 570.315,188.394 588.68,100.37 573.272,100.37 			"/>
			<polygon points="657.015,113.691 665.011,100.37 591.929,100.37 589.219,113.691 612.273,113.691 596.739,188.394 
				612.153,188.394 627.686,113.691 			"/>
			<path d="M681.668,169.591c3.694-4.408,8.269-8.096,13.298-11.395l-10.043-57.825h-16.272l-52.765,88.024h16.523l13.556-23.298
				h35.013L681.668,169.591z M652.5,153.381l21.205-37.472h0.246l5.426,37.472H652.5z"/>
			<path d="M708.974,174.374c3.408-1.704,6.675-3.409,10.084-4.971c8.948-4.119,22.583-10.795,30.536-16.476
				c9.658-6.96,16.76-15.481,16.76-28.832c0-20.877-17.043-29.257-36.218-29.257c-18.461,0-32.847,9.219-38.787,24.906l2.285,13.158
				h17.896c0.426-10.653,5.681-18.463,17.328-18.463c7.386,0,13.351,3.977,13.351,11.504c0,8.38-5.255,12.073-11.078,15.623
				c-22.724,13.919-53.971,21.873-55.675,53.545h78.968l4.687-20.452h-50.136V174.374z"/>
		</g>
	</g>
	<g>
		<g>
			<polygon fill="#F6921E" points="75.537,195.112 237.821,195.112 265.042,60.006 102.738,60.006 			"/>
		</g>
		<g>
			<path d="M195.509,75.796l-0.02-0.021c-0.538-0.582-1.397-0.732-2.1-0.367l-9.648,5.007c-0.492,0.255-1.066-0.155-0.983-0.703
				l1.584-10.478c0.112-0.74-0.335-1.451-1.051-1.67l-0.02-0.006c-0.45-0.138-0.937-0.059-1.321,0.213l-0.159,0.113
				c-9.926,7.032-20.277,13.445-30.992,19.202l-0.164,0.088c-0.099,0.053-0.145,0.17-0.109,0.276l2.414,7.082l0.002-0.001
				l30.227-11.208l-0.078-0.087l12.038-5.738C195.817,77.219,196.013,76.339,195.509,75.796z"/>
			<path fill="#FFFFFF" d="M195.325,102.655c-2.963-7.068-7.07-13.6-12.155-19.333l-30.227,11.208
				c-0.707,2.174-1.048,4.513-0.937,6.948c0.456,10.007,8.573,18.15,18.579,18.622c8.937,0.422,16.627-5.163,19.395-13.061
				l2.87-0.074c2.089-0.054,3.438-2.233,2.553-4.127L195.325,102.655z"/>
			
				<ellipse transform="matrix(0.964 0.2659 -0.2659 0.964 27.6136 -42.91)" fill="#FFFFFF" cx="172.292" cy="80.534" rx="3.879" ry="4.373"/>
			<path fill="#FFFFFF" d="M226.327,91.791c-0.568-0.405-1.277-0.558-1.962-0.425l-0.057,0.011
				c-2.993,0.582-5.749,2.031-7.926,4.166l-8.721,8.554c-0.749,0.735-0.82,1.918,0.269,2.045c0.352,0.041,1.218-0.915,1.59-1.048
				c0.296-0.106,0.588,0.168,0.501,0.47c-0.173,0.603-1.016,2.264-0.286,2.549c1.096,0.429,2.24-2.025,2.74-2.454
				c1.898-1.627,5.526-2.823,7.529-3.955c2.791-1.578,11.008-6.576,11.008-6.576L226.327,91.791z"/>
			<path d="M171.531,120.836C171.531,120.836,171.531,120.836,171.531,120.836c-0.325,0-0.653-0.008-0.981-0.023
				c-10.329-0.488-18.788-8.967-19.26-19.304c-0.112-2.452,0.215-4.875,0.971-7.201c0.068-0.208,0.226-0.373,0.431-0.449
				l30.227-11.208c0.276-0.102,0.588-0.025,0.783,0.196c5.148,5.804,9.28,12.376,12.28,19.531l0.076,0.182
				c0.506,1.082,0.431,2.365-0.212,3.406c-0.644,1.041-1.758,1.681-2.981,1.712l-2.383,0.061
				C187.515,115.593,179.961,120.836,171.531,120.836z M153.519,95.078c-0.629,2.062-0.898,4.202-0.8,6.367
				c0.438,9.607,8.3,17.487,17.899,17.94c0.306,0.014,0.61,0.022,0.913,0.022c7.989,0,15.132-5.065,17.773-12.606
				c0.098-0.28,0.359-0.47,0.656-0.478l2.87-0.074c0.75-0.019,1.407-0.397,1.802-1.035c0.395-0.639,0.439-1.395,0.121-2.075
				l-0.088-0.208c-2.876-6.86-6.814-13.172-11.708-18.769L153.519,95.078z"/>
			<path d="M201.31,114.203c-0.32-0.232-0.767-0.16-0.998,0.159l-13.15,18.138c-1.389,1.916-4.008,2.516-6.092,1.395l-19.293-10.371
				l1.555-3.087c0.178-0.353,0.036-0.782-0.317-0.96c-0.353-0.178-0.782-0.036-0.96,0.317l-3.03,6.015l-14.938-9.915
				c-1.914-1.255-4.35-1.351-6.357-0.25l-14.228,7.802c-0.346,0.19-0.473,0.624-0.283,0.971c0.19,0.346,0.624,0.473,0.971,0.283
				l14.228-7.802c1.542-0.846,3.415-0.772,4.883,0.19l15.077,10.008l-8.615,17.103c-0.119,0.236-0.213,0.479-0.284,0.726
				c-0.126,0.129-0.205,0.305-0.205,0.5v0.048c0,3.355-1.139,6.615-3.207,9.179c-5.347,6.628-11.505,11.473-21.254,16.723
				c-0.347,0.187-0.478,0.621-0.291,0.968c0.129,0.24,0.375,0.376,0.63,0.376c0.114,0,0.23-0.028,0.338-0.086
				c9.93-5.347,16.213-10.296,21.689-17.084c1.563-1.938,2.643-4.237,3.165-6.681c0.227,0.266,0.487,0.51,0.784,0.72l32.017,20.442
				c0.119,0.076,0.252,0.112,0.384,0.112c0.236,0,0.467-0.117,0.603-0.33c0.212-0.333,0.115-0.775-0.218-0.987l-31.989-20.423
				c-1.127-0.796-1.508-2.327-0.888-3.559l8.799-17.469c0.032-0.033,0.065-0.066,0.091-0.105c0.061-0.091,0.095-0.191,0.11-0.293
				l1.094-2.172l19.26,10.353c0.92,0.495,1.92,0.731,2.91,0.731c1.929,0,3.823-0.9,5.017-2.547l13.15-18.138
				C201.701,114.881,201.63,114.434,201.31,114.203z"/>
			<ellipse transform="matrix(0.964 0.2659 -0.2659 0.964 33.589 -44.5657)" cx="181.395" cy="101.776" rx="2.416" ry="2.724"/>
			<ellipse transform="matrix(0.964 0.2659 -0.2659 0.964 31.486 -46.3284)" cx="186.854" cy="93.128" rx="2.719" ry="3.065"/>
			<ellipse transform="matrix(0.964 0.2659 -0.2659 0.964 31.5195 -41.7839)" cx="170.086" cy="95.523" rx="2.719" ry="3.065"/>
			<g>
				<path d="M174.072,115.039c-3.081,0-5.799-2.343-7.041-4.562c-0.685-1.224-0.813-2.145-0.391-2.814
					c0.373-0.591,1.102-0.858,2.171-0.795l21.149-0.545c0.396-0.004,0.723,0.301,0.733,0.696c0.01,0.395-0.301,0.723-0.696,0.733
					l-3.804,0.098c0.073,0.191,0.063,0.412-0.045,0.604l-1.312,2.339c-0.01,0.017-0.02,0.034-0.031,0.05
					c-1.929,2.86-5.262,4.192-10.489,4.192c-0.01,0-0.019,0-0.028,0c-0.003,0-0.034,0.001-0.037,0.001
					C174.192,115.038,174.132,115.039,174.072,115.039z M168.504,108.288c-0.457,0-0.629,0.097-0.655,0.138
					c-0.002,0.003-0.158,0.305,0.429,1.353c1.096,1.957,3.485,3.902,5.932,3.829l0.079-0.002c0.009,0,0.018,0,0.027,0
					c4.694,0,7.647-1.125,9.289-3.538l1.224-2.182l-16.012,0.413c-0.022,0-0.043,0-0.065-0.001
					C168.661,108.291,168.579,108.288,168.504,108.288z"/>
			</g>
			<path d="M206.732,104.708l2.015,0.486c0.473,0.114,0.969,0.1,1.435-0.041l1.009-0.306c1.472-0.446,3.022,0.409,3.431,1.892
				l1.466,5.323c0.224,0.814,0.06,1.686-0.445,2.363l-0.798,1.069c-0.328,0.439-0.78,0.769-1.297,0.949l-3.578,1.238
				c-0.765,0.265-1.608,0.177-2.302-0.239l-3.473-2.083c-0.537-0.322-0.947-0.819-1.162-1.407l-1.055-2.888
				c-0.273-0.749-0.207-1.579,0.182-2.275l1.543-2.758C204.302,104.961,205.54,104.42,206.732,104.708z"/>
			<path d="M185.551,170.936l5.67-5.842c0.577-0.594,1.408-0.87,2.226-0.737l0.028,0.005c0.913,0.148,1.674,0.782,1.984,1.654
				l0.186,0.523c0.323,0.91,0.102,1.924-0.57,2.616l-5.579,5.745c-0.623,0.641-1.537,0.907-2.407,0.7l-0.227-0.054
				c-0.955-0.227-1.694-0.986-1.895-1.948l-0.079-0.377C184.716,172.397,184.964,171.54,185.551,170.936z"/>
			<path d="M122.335,173.405l0.275,1.377c0.043,0.216,0.127,0.422,0.246,0.608l4.14,6.417c0.159,0.246,0.377,0.449,0.635,0.59
				l0.025,0.014c1.039,0.567,1.231,1.977,0.382,2.801l-1.719,1.668c-0.291,0.282-0.67,0.455-1.074,0.49l-2.882,0.245
				c-1.158,0.099-2.287-0.393-3.005-1.307l-1.247-1.59c-2.217-2.825-3.422-6.313-3.422-9.904v-0.072
				c0-0.999,0.433-1.948,1.187-2.603l0.781-0.678c1.024-0.889,2.475-1.095,3.706-0.526l0.037,0.017
				C121.4,171.414,122.119,172.325,122.335,173.405z"/>
			<path d="M115.103,135.605l0.014-0.007c0.256-0.128,0.539-0.195,0.825-0.195h5.088c0.548,0,1.068-0.244,1.418-0.665l2.246-2.701
				c1.079-1.298,0.92-3.221-0.357-4.324l-4.835-4.176c-2.466-2.13-6.082-2.255-8.689-0.3l-0.535,0.402
				c-1.214,0.911-1.341,2.686-0.267,3.76l0.027,0.027c0.436,0.436,0.695,1.017,0.727,1.633l0.15,2.848
				c0.018,0.347,0.134,0.683,0.335,0.967l1.514,2.145C113.292,135.764,114.286,136.014,115.103,135.605z"/>
			<path d="M211.106,102.526c-0.04,0-0.08-0.017-0.109-0.05c-0.051-0.06-0.044-0.15,0.016-0.202l6.969-5.969
				c0.06-0.051,0.15-0.044,0.202,0.016c0.051,0.06,0.044,0.15-0.016,0.202l-6.969,5.969
				C211.172,102.515,211.139,102.526,211.106,102.526z"/>
			<path d="M213.732,101.567l-1.179,0.929c-0.026,0.021-0.057,0.031-0.088,0.031c-0.042,0-0.084-0.019-0.112-0.054
				c-0.049-0.062-0.038-0.152,0.024-0.201l1.179-0.929c0.062-0.049,0.152-0.038,0.201,0.024
				C213.805,101.428,213.794,101.518,213.732,101.567z"/>
			<path d="M212.464,103.563c-0.042,0-0.083-0.018-0.111-0.053c-0.05-0.061-0.04-0.151,0.021-0.201l5.468-4.432
				c0.061-0.05,0.151-0.04,0.201,0.021c0.05,0.061,0.04,0.151-0.021,0.201l-5.468,4.432
				C212.528,103.552,212.496,103.563,212.464,103.563z"/>
			<path d="M218.522,99.743l-5.379,4.289c-0.026,0.021-0.058,0.031-0.089,0.031c-0.042,0-0.083-0.018-0.112-0.054
				c-0.049-0.062-0.039-0.152,0.023-0.201l5.379-4.289c0.062-0.049,0.152-0.039,0.201,0.023
				C218.594,99.604,218.584,99.694,218.522,99.743z"/>
			<path d="M220.867,95.921l-0.935-0.5c-0.095-0.051-0.099-0.185-0.008-0.241l2.113-1.307c0.246-0.152,0.554-0.16,0.807-0.021
				l1.015,0.558c0.096,0.052,0.096,0.189,0.002,0.243l-2.222,1.258C221.401,96.047,221.109,96.05,220.867,95.921z"/>
			<path d="M222.507,96.379c-0.05,0-0.098-0.026-0.124-0.072c-0.039-0.069-0.016-0.156,0.053-0.195l1.751-1.001
				c0.069-0.039,0.156-0.015,0.195,0.053c0.039,0.069,0.015,0.156-0.053,0.195l-1.751,1.001
				C222.556,96.373,222.531,96.379,222.507,96.379z"/>
			<path d="M224.606,96.145l-1.358,0.649c-0.02,0.01-0.041,0.014-0.062,0.014c-0.053,0-0.104-0.03-0.129-0.081
				c-0.034-0.071-0.004-0.157,0.067-0.191l1.358-0.649c0.071-0.034,0.157-0.004,0.191,0.067
				C224.707,96.025,224.677,96.111,224.606,96.145z"/>
			<path d="M209.999,108.45c-0.125,0-0.249-0.023-0.367-0.07c-0.844-0.33-0.365-1.598-0.047-2.437
				c0.069-0.181,0.129-0.34,0.163-0.457c0.009-0.032,0.004-0.061-0.015-0.087c-0.02-0.026-0.049-0.042-0.079-0.042
				c-0.145,0.046-0.4,0.257-0.605,0.426c-0.487,0.402-0.803,0.646-1.094,0.646c-0.011,0-0.045-0.002-0.056-0.003
				c-0.511-0.06-0.871-0.324-1.014-0.743c-0.187-0.548,0.045-1.267,0.578-1.79l8.721-8.554c2.223-2.181,5.015-3.648,8.072-4.242
				l0.057-0.011c0.761-0.148,1.553,0.025,2.183,0.473l4.686,3.337c0.078,0.056,0.123,0.147,0.12,0.243
				c-0.003,0.096-0.055,0.184-0.137,0.234c-0.082,0.05-8.253,5.019-11.016,6.581c-0.723,0.409-1.646,0.822-2.623,1.26
				c-1.72,0.77-3.668,1.642-4.861,2.664c-0.111,0.095-0.301,0.373-0.503,0.668C211.579,107.393,210.855,108.45,209.999,108.45z
				 M209.653,104.785c0.209,0,0.409,0.101,0.536,0.27c0.128,0.169,0.167,0.384,0.108,0.589c-0.037,0.128-0.102,0.303-0.178,0.502
				c-0.163,0.432-0.597,1.578-0.279,1.702c0.586,0.228,1.352-0.902,1.847-1.626c0.243-0.355,0.435-0.635,0.602-0.779
				c1.255-1.076,3.244-1.966,4.999-2.752c0.965-0.432,1.876-0.84,2.575-1.235c2.416-1.366,8.994-5.354,10.629-6.346l-4.332-3.086
				c-0.502-0.358-1.136-0.495-1.742-0.377l-0.057,0.011c-2.947,0.573-5.638,1.987-7.781,4.09l-8.721,8.554
				c-0.367,0.36-0.552,0.864-0.438,1.197c0.07,0.205,0.252,0.327,0.54,0.36c0.115-0.017,0.508-0.341,0.719-0.516
				c0.289-0.238,0.538-0.444,0.741-0.517C209.498,104.799,209.575,104.785,209.653,104.785z"/>
		</g>
	</g>
</g>
</svg>
